<svg xmlns="http://www.w3.org/2000/svg" width="100" height="100" viewBox="0 0 100 100">
  <defs>
    <linearGradient id="iconGrad" x1="0%" y1="0%" x2="100%" y2="100%">
      <stop offset="0%" style="stop-color:#2563eb;stop-opacity:1" />
      <stop offset="100%" style="stop-color:#4f46e5;stop-opacity:1" />
    </linearGradient>
  </defs>

  <!-- Icon Background -->
  <rect width="100" height="100" rx="20" fill="url(#iconGrad)"/>

  <!-- FileText Icon -->
  <g transform="translate(22, 18)" stroke="white" stroke-width="4" fill="none" stroke-linecap="round" stroke-linejoin="round">
    <path d="M10 2H42a4 4 0 0 1 4 4v52a4 4 0 0 1-4 4H10a4 4 0 0 1-4-4V6a4 4 0 0 1 4-4z"/>
    <polyline points="34 2 34 18 50 18"/>
    <line x1="14" y1="32" x2="38" y2="32"/>
    <line x1="14" y1="44" x2="38" y2="44"/>
    <line x1="14" y1="56" x2="28" y2="56"/>
  </g>
</svg>
