<svg xmlns="http://www.w3.org/2000/svg" width="400" height="100" viewBox="0 0 400 100">
  <defs>
    <linearGradient id="grad" x1="0%" y1="0%" x2="100%" y2="100%">
      <stop offset="0%" style="stop-color:#2563eb;stop-opacity:1" />
      <stop offset="100%" style="stop-color:#4f46e5;stop-opacity:1" />
    </linearGradient>
  </defs>

  <!-- Icon Background -->
  <rect x="10" y="15" width="70" height="70" rx="14" fill="url(#grad)"/>

  <!-- FileText Icon -->
  <g transform="translate(22, 25)" stroke="white" stroke-width="3" fill="none" stroke-linecap="round" stroke-linejoin="round">
    <path d="M8 2H36a3 3 0 0 1 3 3v40a3 3 0 0 1-3 3H8a3 3 0 0 1-3-3V5a3 3 0 0 1 3-3z"/>
    <polyline points="28 2 28 14 40 14"/>
    <line x1="12" y1="24" x2="32" y2="24"/>
    <line x1="12" y1="32" x2="32" y2="32"/>
    <line x1="12" y1="40" x2="24" y2="40"/>
  </g>

  <!-- AutoBill24 Text -->
  <text x="95" y="62" font-family="system-ui, -apple-system, sans-serif" font-size="42" font-weight="700" fill="url(#grad)">AutoBill24</text>
</svg>
